<svg width="93" height="36" viewBox="0 0 93 36" fill="none" xmlns="http://www.w3.org/2000/svg">
<mask id="path-1-inside-1" fill="white">
<path fill-rule="evenodd" clip-rule="evenodd" d="M45.1793 0.0462207C41.5271 0.417344 38.2903 1.77023 35.4966 4.09333C34.9116 4.57977 33.7567 5.73462 33.3046 6.28516C31.7954 8.12327 30.7209 10.0746 30.0151 12.2593C29.7187 13.1768 29.4306 14.4261 29.3359 15.2042C29.3108 15.4101 29.28 15.5786 29.2673 15.5786C29.2546 15.5786 29.0123 15.3437 28.7289 15.0566C28.2554 14.577 28.0845 14.4235 27.4718 13.9273C25.0324 11.952 22.2295 10.6329 19.1958 10.0326C18.9226 9.97854 18.6131 9.91687 18.508 9.89555C17.8285 9.75776 17.1306 9.73445 12.7381 9.70281C6.70885 9.65938 3.00754 9.65508 2.97177 9.69148C2.95515 9.70838 3.21601 10.5431 3.55151 11.5463C3.88696 12.5496 4.48172 14.3382 4.87315 15.521C5.26458 16.7038 5.59908 17.7103 5.61647 17.7577L5.64815 17.8439L15.7929 17.8186C26.098 17.7928 26.1057 17.7929 27.4112 17.9241C27.7558 17.9587 28.3025 18.032 28.8499 18.1169C29.1305 18.1605 29.1433 18.1669 29.1652 18.2769C29.1777 18.34 29.188 18.4902 29.188 18.6105C29.188 18.731 29.2066 19.0154 29.2293 19.2426C29.2521 19.4698 29.2601 19.6664 29.2472 19.6794C29.2342 19.6924 29.1254 19.6811 29.0052 19.6543C27.6608 19.3544 26.8563 19.24 25.8636 19.2074C25.5589 19.1975 22.481 19.1798 19.0238 19.1683C15.5667 19.1567 11.2292 19.1394 9.38511 19.1297C6.41084 19.1141 6.03209 19.1187 6.03209 19.1702C6.03209 19.2021 6.09942 19.4309 6.18169 19.6788C6.37156 20.2507 6.6787 21.2287 7.08305 22.5487C7.25771 23.119 7.58426 24.1818 7.80867 24.9105C8.03305 25.6392 8.28849 26.4687 8.37626 26.7538L8.53583 27.2722L20.2516 27.2914L31.9674 27.3106L32.1896 27.6371C34.2874 30.7193 37.1595 32.9956 40.5939 34.2981C42.0107 34.8354 43.4546 35.1748 45.122 35.3625C45.8025 35.4391 47.9398 35.4269 48.6565 35.3422C51.2537 35.0355 53.5986 34.26 55.7194 33.0065C56.9147 32.3 57.9458 31.5189 59.0202 30.506C59.2561 30.2836 59.7264 29.868 60.0652 29.5823C60.5738 29.1535 60.7956 28.9974 61.3367 28.6874C62.7006 27.9059 63.3546 27.6437 64.4933 27.4224L64.9693 27.3298H74.2467C79.3492 27.3298 83.524 27.3189 83.524 27.3054C83.524 27.2816 84.0632 25.6373 85.4239 21.5118C85.7931 20.3924 86.1257 19.3767 86.1629 19.2548L86.2306 19.0331L76.9962 19.0456C68.7227 19.0568 67.6904 19.0648 67.0742 19.1224C66.6959 19.1577 65.9909 19.2126 65.5075 19.2443C64.4616 19.3129 63.1465 19.5051 62.2023 19.7274C61.4381 19.9073 61.1337 19.9991 60.1198 20.3554C59.3524 20.6251 59.024 20.7922 57.445 21.7165C56.2916 22.3916 54.8593 23.5415 54.1189 24.3867C53.3142 25.3054 52.1168 26.1865 50.93 26.7334C48.9872 27.6286 46.9164 27.861 44.7781 27.4238C44.0938 27.2839 43.1382 26.9508 42.464 26.6172C38.5575 24.6842 36.3766 20.409 37.0988 16.0998C37.6746 12.6634 39.9571 9.82823 43.1923 8.53045C46.1576 7.34097 49.6102 7.70437 52.2674 9.48564C53.0655 10.0206 54.0879 10.9836 54.6521 11.7318C55.638 13.0391 56.2635 14.513 56.5534 16.2123C56.6267 16.6418 56.6387 16.8535 56.6392 17.7292C56.6399 18.7271 56.6088 19.0743 56.4495 19.8449C56.4266 19.9558 56.5158 19.8735 57.923 18.4838C58.3539 18.0582 59.0933 17.3306 59.566 16.8669C62.9732 13.5249 63.7307 12.77 63.7307 12.7167C63.7307 12.6297 63.3977 11.6448 63.2052 11.1623C62.3035 8.9025 61.0949 7.0412 59.3938 5.29222C56.557 2.37565 52.9203 0.587776 48.7902 0.079247C48.0742 -0.00892556 45.9161 -0.0286646 45.1793 0.0462207ZM0.1667 0.363197C0.103651 0.369379 0.031853 0.381284 0.0072069 0.389694C-0.023018 0.399948 0.0416346 0.641194 0.204796 1.1273C1.87274 6.09653 2.41695 7.71643 2.54075 8.08049L2.68767 8.51252L9.60432 8.51309C16.1812 8.51363 16.5604 8.51736 17.3234 8.58917C17.7648 8.63068 18.3064 8.69217 18.5271 8.72577C18.7478 8.75937 19.0831 8.8101 19.2722 8.83844C19.7282 8.90684 20.1054 8.98767 20.799 9.16563C21.827 9.42946 22.0834 9.50918 22.3612 9.65154C22.8848 9.91986 22.9291 9.93868 22.9854 9.9169C23.0373 9.89694 21.9878 8.80365 18.9474 5.71027C17.848 4.59172 16.2896 3.44467 14.7442 2.61674C14.087 2.26463 13.0198 1.77818 12.525 1.60518C11.3548 1.19607 11.0331 1.09431 10.5219 0.971802C10.0188 0.85118 9.43218 0.724374 8.80239 0.600064C8.55822 0.551869 7.48732 0.44822 7.23188 0.448067C7.1247 0.44799 6.98714 0.431169 6.92619 0.410701C6.82738 0.377444 0.476132 0.33282 0.1667 0.363197ZM88.0329 0.372144C84.5636 0.401599 83.9036 0.441692 82.607 0.701985C81.5607 0.912048 80.8768 1.08701 80.2761 1.29838C79.9714 1.4056 79.5759 1.544 79.3972 1.60587C78.9405 1.76413 78.034 2.17319 77.3147 2.54562C76.102 3.17362 75.1685 3.8121 73.6107 5.07924C73.5043 5.1658 72.9204 5.75336 72.3132 6.38493C71.706 7.0165 70.6854 8.0576 70.0451 8.69846C68.7375 10.0072 68.6758 10.102 69.3587 9.75112C69.9731 9.43553 71.4204 9.03499 72.6721 8.8341C74.6217 8.52127 74.0916 8.53898 82.2221 8.5149L89.4986 8.49332L89.6685 7.99408C89.8392 7.49254 91.3776 2.91356 91.9225 1.28505C92.083 0.805519 92.2063 0.405747 92.1965 0.396645C92.1539 0.356783 90.7887 0.348757 88.0329 0.372144ZM46.1345 9.13134C45.3016 9.23437 44.8593 9.33007 44.1667 9.55719C41.3474 10.4816 39.1077 12.996 38.4951 15.9242C38.2537 17.0783 38.2541 18.3767 38.4963 19.5341C38.7534 20.7623 39.3526 22.0386 40.1461 23.0479C40.3824 23.3486 41.1293 24.1084 41.4585 24.3832C42.1441 24.9554 43.2147 25.5425 44.1285 25.8475C47.2576 26.8915 50.6636 26.0467 52.9532 23.6588C53.6181 22.9652 54.0387 22.3541 54.4835 21.435C55.1048 20.1514 55.3601 19.0476 55.3617 17.6381C55.3641 15.5863 54.6447 13.6496 53.2913 12.0648C52.0128 10.5675 50.1667 9.53123 48.2362 9.22712C47.3056 9.08053 46.75 9.05523 46.1345 9.13134ZM78.3655 9.70492C75.4385 9.72485 74.6789 9.74083 74.1623 9.79332C73.8156 9.82858 73.4459 9.87455 73.3408 9.89548C72.6141 10.0401 71.9302 10.1898 71.4876 10.3012C70.7309 10.4915 69.391 10.9565 68.7994 11.2341C68.6135 11.3213 68.4536 11.3927 68.4441 11.3927C68.4347 11.3927 68.1914 11.511 67.9034 11.6556C66.7928 12.2133 65.9987 12.6951 65.187 13.3036C64.0686 14.1421 63.6429 14.524 62.4738 15.7376C61.856 16.3788 60.8459 17.409 60.2289 18.0269C59.612 18.6447 59.1072 19.1675 59.1072 19.1885C59.1072 19.2682 59.2646 19.2203 59.6665 19.0182C60.2187 18.7406 61.6583 18.3373 62.6799 18.174C62.8901 18.1404 63.1566 18.0955 63.2722 18.0742C63.6625 18.0023 64.3074 17.9299 65.3462 17.8414C65.7882 17.8037 68.0192 17.7976 75.6059 17.8135C80.9381 17.8246 85.5672 17.8232 85.8927 17.8103L86.4845 17.7868L86.8893 16.5771C87.2969 15.3591 87.5883 14.4921 88.5879 11.5239C88.8873 10.635 89.1441 9.853 89.1588 9.78614L89.1853 9.6646L85.5618 9.67263C83.5688 9.67704 80.3305 9.6916 78.3655 9.70492Z"/>
</mask>
<path fill-rule="evenodd" clip-rule="evenodd" d="M45.1793 0.0462207C41.5271 0.417344 38.2903 1.77023 35.4966 4.09333C34.9116 4.57977 33.7567 5.73462 33.3046 6.28516C31.7954 8.12327 30.7209 10.0746 30.0151 12.2593C29.7187 13.1768 29.4306 14.4261 29.3359 15.2042C29.3108 15.4101 29.28 15.5786 29.2673 15.5786C29.2546 15.5786 29.0123 15.3437 28.7289 15.0566C28.2554 14.577 28.0845 14.4235 27.4718 13.9273C25.0324 11.952 22.2295 10.6329 19.1958 10.0326C18.9226 9.97854 18.6131 9.91687 18.508 9.89555C17.8285 9.75776 17.1306 9.73445 12.7381 9.70281C6.70885 9.65938 3.00754 9.65508 2.97177 9.69148C2.95515 9.70838 3.21601 10.5431 3.55151 11.5463C3.88696 12.5496 4.48172 14.3382 4.87315 15.521C5.26458 16.7038 5.59908 17.7103 5.61647 17.7577L5.64815 17.8439L15.7929 17.8186C26.098 17.7928 26.1057 17.7929 27.4112 17.9241C27.7558 17.9587 28.3025 18.032 28.8499 18.1169C29.1305 18.1605 29.1433 18.1669 29.1652 18.2769C29.1777 18.34 29.188 18.4902 29.188 18.6105C29.188 18.731 29.2066 19.0154 29.2293 19.2426C29.2521 19.4698 29.2601 19.6664 29.2472 19.6794C29.2342 19.6924 29.1254 19.6811 29.0052 19.6543C27.6608 19.3544 26.8563 19.24 25.8636 19.2074C25.5589 19.1975 22.481 19.1798 19.0238 19.1683C15.5667 19.1567 11.2292 19.1394 9.38511 19.1297C6.41084 19.1141 6.03209 19.1187 6.03209 19.1702C6.03209 19.2021 6.09942 19.4309 6.18169 19.6788C6.37156 20.2507 6.6787 21.2287 7.08305 22.5487C7.25771 23.119 7.58426 24.1818 7.80867 24.9105C8.03305 25.6392 8.28849 26.4687 8.37626 26.7538L8.53583 27.2722L20.2516 27.2914L31.9674 27.3106L32.1896 27.6371C34.2874 30.7193 37.1595 32.9956 40.5939 34.2981C42.0107 34.8354 43.4546 35.1748 45.122 35.3625C45.8025 35.4391 47.9398 35.4269 48.6565 35.3422C51.2537 35.0355 53.5986 34.26 55.7194 33.0065C56.9147 32.3 57.9458 31.5189 59.0202 30.506C59.2561 30.2836 59.7264 29.868 60.0652 29.5823C60.5738 29.1535 60.7956 28.9974 61.3367 28.6874C62.7006 27.9059 63.3546 27.6437 64.4933 27.4224L64.9693 27.3298H74.2467C79.3492 27.3298 83.524 27.3189 83.524 27.3054C83.524 27.2816 84.0632 25.6373 85.4239 21.5118C85.7931 20.3924 86.1257 19.3767 86.1629 19.2548L86.2306 19.0331L76.9962 19.0456C68.7227 19.0568 67.6904 19.0648 67.0742 19.1224C66.6959 19.1577 65.9909 19.2126 65.5075 19.2443C64.4616 19.3129 63.1465 19.5051 62.2023 19.7274C61.4381 19.9073 61.1337 19.9991 60.1198 20.3554C59.3524 20.6251 59.024 20.7922 57.445 21.7165C56.2916 22.3916 54.8593 23.5415 54.1189 24.3867C53.3142 25.3054 52.1168 26.1865 50.93 26.7334C48.9872 27.6286 46.9164 27.861 44.7781 27.4238C44.0938 27.2839 43.1382 26.9508 42.464 26.6172C38.5575 24.6842 36.3766 20.409 37.0988 16.0998C37.6746 12.6634 39.9571 9.82823 43.1923 8.53045C46.1576 7.34097 49.6102 7.70437 52.2674 9.48564C53.0655 10.0206 54.0879 10.9836 54.6521 11.7318C55.638 13.0391 56.2635 14.513 56.5534 16.2123C56.6267 16.6418 56.6387 16.8535 56.6392 17.7292C56.6399 18.7271 56.6088 19.0743 56.4495 19.8449C56.4266 19.9558 56.5158 19.8735 57.923 18.4838C58.3539 18.0582 59.0933 17.3306 59.566 16.8669C62.9732 13.5249 63.7307 12.77 63.7307 12.7167C63.7307 12.6297 63.3977 11.6448 63.2052 11.1623C62.3035 8.9025 61.0949 7.0412 59.3938 5.29222C56.557 2.37565 52.9203 0.587776 48.7902 0.079247C48.0742 -0.00892556 45.9161 -0.0286646 45.1793 0.0462207ZM0.1667 0.363197C0.103651 0.369379 0.031853 0.381284 0.0072069 0.389694C-0.023018 0.399948 0.0416346 0.641194 0.204796 1.1273C1.87274 6.09653 2.41695 7.71643 2.54075 8.08049L2.68767 8.51252L9.60432 8.51309C16.1812 8.51363 16.5604 8.51736 17.3234 8.58917C17.7648 8.63068 18.3064 8.69217 18.5271 8.72577C18.7478 8.75937 19.0831 8.8101 19.2722 8.83844C19.7282 8.90684 20.1054 8.98767 20.799 9.16563C21.827 9.42946 22.0834 9.50918 22.3612 9.65154C22.8848 9.91986 22.9291 9.93868 22.9854 9.9169C23.0373 9.89694 21.9878 8.80365 18.9474 5.71027C17.848 4.59172 16.2896 3.44467 14.7442 2.61674C14.087 2.26463 13.0198 1.77818 12.525 1.60518C11.3548 1.19607 11.0331 1.09431 10.5219 0.971802C10.0188 0.85118 9.43218 0.724374 8.80239 0.600064C8.55822 0.551869 7.48732 0.44822 7.23188 0.448067C7.1247 0.44799 6.98714 0.431169 6.92619 0.410701C6.82738 0.377444 0.476132 0.33282 0.1667 0.363197ZM88.0329 0.372144C84.5636 0.401599 83.9036 0.441692 82.607 0.701985C81.5607 0.912048 80.8768 1.08701 80.2761 1.29838C79.9714 1.4056 79.5759 1.544 79.3972 1.60587C78.9405 1.76413 78.034 2.17319 77.3147 2.54562C76.102 3.17362 75.1685 3.8121 73.6107 5.07924C73.5043 5.1658 72.9204 5.75336 72.3132 6.38493C71.706 7.0165 70.6854 8.0576 70.0451 8.69846C68.7375 10.0072 68.6758 10.102 69.3587 9.75112C69.9731 9.43553 71.4204 9.03499 72.6721 8.8341C74.6217 8.52127 74.0916 8.53898 82.2221 8.5149L89.4986 8.49332L89.6685 7.99408C89.8392 7.49254 91.3776 2.91356 91.9225 1.28505C92.083 0.805519 92.2063 0.405747 92.1965 0.396645C92.1539 0.356783 90.7887 0.348757 88.0329 0.372144ZM46.1345 9.13134C45.3016 9.23437 44.8593 9.33007 44.1667 9.55719C41.3474 10.4816 39.1077 12.996 38.4951 15.9242C38.2537 17.0783 38.2541 18.3767 38.4963 19.5341C38.7534 20.7623 39.3526 22.0386 40.1461 23.0479C40.3824 23.3486 41.1293 24.1084 41.4585 24.3832C42.1441 24.9554 43.2147 25.5425 44.1285 25.8475C47.2576 26.8915 50.6636 26.0467 52.9532 23.6588C53.6181 22.9652 54.0387 22.3541 54.4835 21.435C55.1048 20.1514 55.3601 19.0476 55.3617 17.6381C55.3641 15.5863 54.6447 13.6496 53.2913 12.0648C52.0128 10.5675 50.1667 9.53123 48.2362 9.22712C47.3056 9.08053 46.75 9.05523 46.1345 9.13134ZM78.3655 9.70492C75.4385 9.72485 74.6789 9.74083 74.1623 9.79332C73.8156 9.82858 73.4459 9.87455 73.3408 9.89548C72.6141 10.0401 71.9302 10.1898 71.4876 10.3012C70.7309 10.4915 69.391 10.9565 68.7994 11.2341C68.6135 11.3213 68.4536 11.3927 68.4441 11.3927C68.4347 11.3927 68.1914 11.511 67.9034 11.6556C66.7928 12.2133 65.9987 12.6951 65.187 13.3036C64.0686 14.1421 63.6429 14.524 62.4738 15.7376C61.856 16.3788 60.8459 17.409 60.2289 18.0269C59.612 18.6447 59.1072 19.1675 59.1072 19.1885C59.1072 19.2682 59.2646 19.2203 59.6665 19.0182C60.2187 18.7406 61.6583 18.3373 62.6799 18.174C62.8901 18.1404 63.1566 18.0955 63.2722 18.0742C63.6625 18.0023 64.3074 17.9299 65.3462 17.8414C65.7882 17.8037 68.0192 17.7976 75.6059 17.8135C80.9381 17.8246 85.5672 17.8232 85.8927 17.8103L86.4845 17.7868L86.8893 16.5771C87.2969 15.3591 87.5883 14.4921 88.5879 11.5239C88.8873 10.635 89.1441 9.853 89.1588 9.78614L89.1853 9.6646L85.5618 9.67263C83.5688 9.67704 80.3305 9.6916 78.3655 9.70492Z" stroke="white" stroke-width="5.61071" mask="url(#path-1-inside-1)"/>
</svg>
